<mxfile host="app.diagrams.net" modified="2022-08-08T18:42:38.086Z" agent="5.0 (Macintosh; Intel Mac OS X 10_12_6) AppleWebKit/537.36 (KHTML, like Gecko) Chrome/103.0.0.0 Safari/537.36" etag="3RhltotzUmVKLczGES-I" version="20.2.3" type="github">
  <diagram id="C8Z_L6T-wn7IVs20T2Ki" name="Page-1">
    <mxGraphModel dx="946" dy="646" grid="1" gridSize="10" guides="1" tooltips="1" connect="1" arrows="1" fold="1" page="1" pageScale="1" pageWidth="850" pageHeight="1100" math="0" shadow="0">
      <root>
        <mxCell id="0" />
        <mxCell id="1" parent="0" />
        <mxCell id="KFUXzflfJGB-upfnC038-1" value="User&lt;br&gt;" style="shape=umlActor;verticalLabelPosition=bottom;verticalAlign=top;html=1;outlineConnect=0;" vertex="1" parent="1">
          <mxGeometry x="30" y="250" width="30" height="60" as="geometry" />
        </mxCell>
        <mxCell id="KFUXzflfJGB-upfnC038-4" value="" style="endArrow=classic;html=1;rounded=0;" edge="1" parent="1">
          <mxGeometry width="50" height="50" relative="1" as="geometry">
            <mxPoint x="70" y="279.5" as="sourcePoint" />
            <mxPoint x="140" y="279.5" as="targetPoint" />
          </mxGeometry>
        </mxCell>
        <mxCell id="KFUXzflfJGB-upfnC038-5" value="Browser" style="text;html=1;strokeColor=none;fillColor=none;align=center;verticalAlign=middle;whiteSpace=wrap;rounded=0;" vertex="1" parent="1">
          <mxGeometry x="20" y="330" width="60" height="30" as="geometry" />
        </mxCell>
        <mxCell id="KFUXzflfJGB-upfnC038-6" value="Frontend&lt;br&gt;(Static Contents)&lt;br&gt;&lt;br&gt;&lt;br&gt;[Next JS / React]&lt;br&gt;" style="whiteSpace=wrap;html=1;aspect=fixed;" vertex="1" parent="1">
          <mxGeometry x="140" y="210" width="150" height="150" as="geometry" />
        </mxCell>
        <mxCell id="KFUXzflfJGB-upfnC038-7" value="Vercel" style="text;html=1;strokeColor=none;fillColor=none;align=center;verticalAlign=middle;whiteSpace=wrap;rounded=0;" vertex="1" parent="1">
          <mxGeometry x="180" y="170" width="60" height="30" as="geometry" />
        </mxCell>
        <mxCell id="KFUXzflfJGB-upfnC038-8" value="" style="endArrow=classic;html=1;rounded=0;" edge="1" parent="1">
          <mxGeometry relative="1" as="geometry">
            <mxPoint x="290" y="284.5" as="sourcePoint" />
            <mxPoint x="390" y="284.5" as="targetPoint" />
          </mxGeometry>
        </mxCell>
        <mxCell id="KFUXzflfJGB-upfnC038-9" value="Rest calls" style="edgeLabel;resizable=0;html=1;align=center;verticalAlign=middle;" connectable="0" vertex="1" parent="KFUXzflfJGB-upfnC038-8">
          <mxGeometry relative="1" as="geometry" />
        </mxCell>
        <mxCell id="KFUXzflfJGB-upfnC038-10" value="AWS" style="swimlane;" vertex="1" parent="1">
          <mxGeometry x="390" y="150" width="320" height="320" as="geometry" />
        </mxCell>
        <mxCell id="KFUXzflfJGB-upfnC038-11" value="Route 53" style="rounded=0;whiteSpace=wrap;html=1;" vertex="1" parent="KFUXzflfJGB-upfnC038-10">
          <mxGeometry x="5" y="160" width="45" height="30" as="geometry" />
        </mxCell>
        <mxCell id="KFUXzflfJGB-upfnC038-12" value="" style="endArrow=classic;html=1;rounded=0;" edge="1" parent="KFUXzflfJGB-upfnC038-10" target="KFUXzflfJGB-upfnC038-13">
          <mxGeometry width="50" height="50" relative="1" as="geometry">
            <mxPoint x="50" y="174.5" as="sourcePoint" />
            <mxPoint x="80" y="175" as="targetPoint" />
          </mxGeometry>
        </mxCell>
        <mxCell id="KFUXzflfJGB-upfnC038-13" value="API Gateway" style="rounded=0;whiteSpace=wrap;html=1;" vertex="1" parent="KFUXzflfJGB-upfnC038-10">
          <mxGeometry x="90" y="145" width="60" height="60" as="geometry" />
        </mxCell>
        <mxCell id="KFUXzflfJGB-upfnC038-14" value="" style="endArrow=classic;html=1;rounded=0;" edge="1" parent="KFUXzflfJGB-upfnC038-10">
          <mxGeometry width="50" height="50" relative="1" as="geometry">
            <mxPoint x="150" y="174.5" as="sourcePoint" />
            <mxPoint x="190" y="175" as="targetPoint" />
          </mxGeometry>
        </mxCell>
        <mxCell id="KFUXzflfJGB-upfnC038-15" value="Lambda/EC2&amp;nbsp;&lt;br&gt;[Django code]" style="rounded=0;whiteSpace=wrap;html=1;" vertex="1" parent="KFUXzflfJGB-upfnC038-10">
          <mxGeometry x="190" y="140" width="110" height="70" as="geometry" />
        </mxCell>
        <mxCell id="KFUXzflfJGB-upfnC038-16" value="" style="endArrow=classic;html=1;rounded=0;" edge="1" parent="KFUXzflfJGB-upfnC038-10">
          <mxGeometry width="50" height="50" relative="1" as="geometry">
            <mxPoint x="240" y="140" as="sourcePoint" />
            <mxPoint x="240" y="100" as="targetPoint" />
          </mxGeometry>
        </mxCell>
        <mxCell id="KFUXzflfJGB-upfnC038-17" value="AWS transcribe" style="shape=cylinder3;whiteSpace=wrap;html=1;boundedLbl=1;backgroundOutline=1;size=15;" vertex="1" parent="KFUXzflfJGB-upfnC038-10">
          <mxGeometry x="250" y="250" width="60" height="60" as="geometry" />
        </mxCell>
        <mxCell id="KFUXzflfJGB-upfnC038-18" value="REDIS" style="shape=parallelogram;perimeter=parallelogramPerimeter;whiteSpace=wrap;html=1;fixedSize=1;" vertex="1" parent="KFUXzflfJGB-upfnC038-10">
          <mxGeometry x="202.5" y="80" width="85" height="20" as="geometry" />
        </mxCell>
        <mxCell id="KFUXzflfJGB-upfnC038-20" value="" style="endArrow=classic;html=1;rounded=0;entryX=0.5;entryY=0;entryDx=0;entryDy=0;entryPerimeter=0;exitX=0.75;exitY=1;exitDx=0;exitDy=0;" edge="1" parent="KFUXzflfJGB-upfnC038-10" source="KFUXzflfJGB-upfnC038-15" target="KFUXzflfJGB-upfnC038-17">
          <mxGeometry width="50" height="50" relative="1" as="geometry">
            <mxPoint x="210" y="210" as="sourcePoint" />
            <mxPoint x="210" y="270" as="targetPoint" />
          </mxGeometry>
        </mxCell>
        <mxCell id="KFUXzflfJGB-upfnC038-21" value="S3" style="rounded=1;whiteSpace=wrap;html=1;" vertex="1" parent="KFUXzflfJGB-upfnC038-10">
          <mxGeometry x="70" y="262.5" width="30" height="25" as="geometry" />
        </mxCell>
        <mxCell id="KFUXzflfJGB-upfnC038-22" value="" style="endArrow=classic;html=1;rounded=0;entryX=0.855;entryY=0;entryDx=0;entryDy=4.35;entryPerimeter=0;exitX=0;exitY=1;exitDx=0;exitDy=0;" edge="1" parent="KFUXzflfJGB-upfnC038-10" source="KFUXzflfJGB-upfnC038-15">
          <mxGeometry width="50" height="50" relative="1" as="geometry">
            <mxPoint x="142.89999999999998" y="220" as="sourcePoint" />
            <mxPoint x="97.10000000000002" y="264.35" as="targetPoint" />
          </mxGeometry>
        </mxCell>
        <mxCell id="KFUXzflfJGB-upfnC038-23" value="SNS" style="rounded=1;whiteSpace=wrap;html=1;" vertex="1" parent="KFUXzflfJGB-upfnC038-10">
          <mxGeometry x="202.5" y="260" width="40" height="30" as="geometry" />
        </mxCell>
        <mxCell id="KFUXzflfJGB-upfnC038-24" value="" style="endArrow=classic;html=1;rounded=0;entryX=0.5;entryY=0;entryDx=0;entryDy=0;exitX=0.318;exitY=1.057;exitDx=0;exitDy=0;exitPerimeter=0;" edge="1" parent="KFUXzflfJGB-upfnC038-10" source="KFUXzflfJGB-upfnC038-15" target="KFUXzflfJGB-upfnC038-23">
          <mxGeometry width="50" height="50" relative="1" as="geometry">
            <mxPoint x="223" y="220" as="sourcePoint" />
            <mxPoint x="174.20000000000005" y="264.35" as="targetPoint" />
          </mxGeometry>
        </mxCell>
        <mxCell id="KFUXzflfJGB-upfnC038-25" value="RDS" style="shape=datastore;whiteSpace=wrap;html=1;" vertex="1" parent="KFUXzflfJGB-upfnC038-10">
          <mxGeometry x="145" y="255" width="30" height="40" as="geometry" />
        </mxCell>
        <mxCell id="KFUXzflfJGB-upfnC038-27" value="" style="endArrow=classic;html=1;rounded=0;entryX=0.5;entryY=0;entryDx=0;entryDy=0;" edge="1" parent="KFUXzflfJGB-upfnC038-10" target="KFUXzflfJGB-upfnC038-25">
          <mxGeometry width="50" height="50" relative="1" as="geometry">
            <mxPoint x="210" y="210" as="sourcePoint" />
            <mxPoint x="160" y="250" as="targetPoint" />
          </mxGeometry>
        </mxCell>
      </root>
    </mxGraphModel>
  </diagram>
</mxfile>
